<?xml version="1.0" standalone="no"?>
<!DOCTYPE svg PUBLIC "-//W3C//DTD SVG 20010904//EN"
 "http://www.w3.org/TR/2001/REC-SVG-20010904/DTD/svg10.dtd">
<svg version="1.0" xmlns="http://www.w3.org/2000/svg"
 width="400.000000pt" height="400.000000pt" viewBox="0 0 400.000000 400.000000"
 preserveAspectRatio="xMidYMid meet">

<g transform="translate(0.000000,400.000000) scale(0.100000,-0.100000)"
fill="#000000" stroke="none">
<path d="M1328 3179 c-87 -83 -158 -158 -158 -167 1 -31 88 -394 96 -401 5 -4
299 -2 654 4 l645 12 22 -26 c13 -14 23 -33 23 -41 0 -8 12 -37 25 -65 14 -27
25 -57 25 -65 -1 -8 -58 -72 -128 -141 l-127 -127 -438 -6 -438 -6 -9 28 c-6
15 -15 34 -20 42 -6 8 -15 26 -21 40 -11 28 -69 143 -75 149 -4 4 -111 -102
-256 -254 l-76 -80 24 -110 c13 -60 33 -152 45 -204 l21 -94 672 5 672 6 11
-49 c7 -27 18 -63 26 -81 31 -68 34 -62 -96 -194 l-122 -124 -400 0 -400 0
-56 112 c-30 61 -63 116 -72 122 -13 8 -45 -18 -178 -150 l-162 -161 56 -203
c31 -112 61 -207 68 -211 7 -4 187 -8 400 -7 l388 0 143 145 c79 80 224 228
323 328 99 101 260 265 359 366 l178 184 -16 75 c-9 41 -32 148 -52 237 l-37
161 -28 -10 c-16 -5 -29 -14 -29 -19 0 -5 -6 -9 -14 -9 -7 0 -27 -7 -42 -15
-20 -10 -59 -15 -124 -15 l-94 0 249 250 c138 138 254 259 259 269 9 20 -79
446 -96 466 -5 5 -33 -3 -73 -23 l-65 -32 -593 0 -592 0 -20 38 c-11 21 -38
75 -60 120 -22 45 -44 81 -50 81 -5 0 -81 -67 -167 -150z"/>
</g>
</svg>
